inDegrees=no
num_controls=7
num_derivatives=13
num_iterations=156
num_multipliers=7
num_parameters=0
num_slacks=7
num_states=26
objective=0.433955
objective_accelerations=0.045852
objective_balance=0.006801
objective_effort=0.029385
objective_height=0.350635
objective_ligament=0.001281
solver_duration=2017.908928
status=Solve_Succeeded
success=true
DataType=double
version=3
OpenSimVersion=4.5
endheader
time	/jointset/ground_pelvis/pelvis_tilt/value	/jointset/ground_pelvis/pelvis_tx/value	/jointset/ground_pelvis/pelvis_ty/value	/jointset/hip_l/hip_flexion_l/value	/jointset/hip_l/hip_adduction_l/value	/jointset/hip_l/hip_rotation_l/value	/jointset/back/lumbar_extension/value	/jointset/patellofemoral_l/patellar_flexion_l/value	/jointset/knee_l/knee_flexion_l/value	/jointset/knee_l/knee_adduction_l/value	/jointset/knee_l/knee_rotation_l/value	/jointset/ankle_l/ankle_angle_l/value	/jointset/subtalar_l/subtalar_angle_l/value	/jointset/ground_pelvis/pelvis_tilt/speed	/jointset/ground_pelvis/pelvis_tx/speed	/jointset/ground_pelvis/pelvis_ty/speed	/jointset/hip_l/hip_flexion_l/speed	/jointset/hip_l/hip_adduction_l/speed	/jointset/hip_l/hip_rotation_l/speed	/jointset/back/lumbar_extension/speed	/jointset/patellofemoral_l/patellar_flexion_l/speed	/jointset/knee_l/knee_flexion_l/speed	/jointset/knee_l/knee_adduction_l/speed	/jointset/knee_l/knee_rotation_l/speed	/jointset/ankle_l/ankle_angle_l/speed	/jointset/subtalar_l/subtalar_angle_l/speed	/forceset/tau_hip_flexion_l	/forceset/tau_hip_adduction_l	/forceset/tau_hip_rotation_l	/forceset/tau_knee_flexion_l	/forceset/tau_ankle_angle_l	/forceset/tau_subtalar_angle_l	/forceset/tau_lumbar_extension	lambda_cid13_p0	lambda_cid13_p1	lambda_cid13_p2	lambda_cid13_p3	lambda_cid13_p4	lambda_cid13_p5	lambda_cid14_p0	/jointset/ground_pelvis/pelvis_tilt/accel	/jointset/ground_pelvis/pelvis_tx/accel	/jointset/ground_pelvis/pelvis_ty/accel	/jointset/hip_l/hip_flexion_l/accel	/jointset/hip_l/hip_adduction_l/accel	/jointset/hip_l/hip_rotation_l/accel	/jointset/back/lumbar_extension/accel	/jointset/patellofemoral_l/patellar_flexion_l/accel	/jointset/knee_l/knee_flexion_l/accel	/jointset/knee_l/knee_adduction_l/accel	/jointset/knee_l/knee_rotation_l/accel	/jointset/ankle_l/ankle_angle_l/accel	/jointset/subtalar_l/subtalar_angle_l/accel	gamma_cid13_p0	gamma_cid13_p1	gamma_cid13_p2	gamma_cid13_p3	gamma_cid13_p4	gamma_cid13_p5	gamma_cid14_p0
1.5	-0.3279118204196698	-0.0266407318584991	0.7781477414982678	1.118830550071245	-0.3065074833069709	-0.01102904482034549	-0.3338570798613114	0.7613149218367465	0.7613149218367274	-0.1739150023280818	0.170018654719325	0.1477961548693036	-0.02384520197836544	0.4089749464750574	0.154589448304631	0.4496931970906007	-1.949875042014976	0.00418712728193958	-0.654193440215298	0.5765959716083685	-1.940660639774096	-1.940660639774148	0.003951867311191929	-0.03194454334022994	-0.5149418888441399	-0.07899127133661192	-0.1881151473261432	0.02052680083095595	-0.02563459551309417	-0.2449093330800463	0.0951465557748748	0.04117079761261815	0.1882495061516442	-7.848953084555951	-19.66407039869575	6.33963907859199	-0.9842115816721572	-609.290500069224	-61.51484898781829	-23.93122757784514	0.4417470694004244	0.4851651926268484	-0.360332213411683	-1.23544859642713	0.6275594907406289	-0.3596711485562032	1.529323784162838	-1.226532455755225	-1.226532455755229	0.06146473523385187	-0.08720063302205198	-0.4299010911340204	0.6321675149980241	3.940683575370184e-07	5.194870520010377e-07	-2.221003616298669e-06	-2.304086043343042e-07	4.471121010597679e-07	4.024085951919276e-07	3.639904342110979e-07
1.51	-0.3238000861442889	-0.02507070245980846	0.7826257859337961	1.099271788564877	-0.3064354452720074	-0.01758594945380138	-0.3280158942028747	0.7418489115797607	0.7418489115797632	-0.1738764570259829	0.1696945162695675	0.1426255018746345	-0.0246050403474187	0.4133172481851078	0.1593991306498202	0.445824691891348	-1.961603936567237	0.01023786161319207	-0.6571046735225572	0.59156218478705	-1.952262231204442	-1.952262231204483	0.003757989459152145	-0.03287699571957632	-0.5191001688526762	-0.07295951719027687	-0.1822410430164977	0.01984984182724932	-0.02544410183682669	-0.2424106881030058	0.09682724334269963	0.04079956264661461	0.183336884659448	-7.11997041335364	-19.71196697428157	6.44034890399985	-1.207886892703791	-605.5209865901442	-61.74479073732273	-25.08684490244629	0.4223169149131059	0.4762183292339319	-0.4136509927628895	-1.100553848432954	0.5967700056690822	-0.2440412746563068	1.468423790934937	-1.085181419896941	-1.085181419895147	-0.05972815796141869	-0.09483029092188396	-0.3955153694263533	0.5914258868914255	4.518479223211405e-07	5.684953295826997e-07	-2.495084439222043e-06	-2.641575644007049e-07	5.097347305282051e-07	4.882153082575323e-07	4.075436014908428e-07
1.52	-0.3196465598131864	-0.02345310652291212	0.7870624370534156	1.079603949320225	-0.3063023119734611	-0.02416940479089897	-0.3220274156714084	0.7222752436218269	0.7222752436218509	-0.1738398333249122	0.1693613407459102	0.1374159212971376	-0.02530401187052058	0.4173333576193883	0.1641027559457685	0.4414145339088625	-1.971690589671794	0.01640617999850552	-0.6595035809436376	0.6060545462142968	-1.962192179963693	-1.962192179963722	0.003567547105571356	-0.03375195812016082	-0.5227274054097293	-0.06681790214633458	-0.1763669387068521	0.01917288282354266	-0.02525360816055991	-0.2399120431259652	0.09850793091052445	0.04042832768061103	0.1784242631672518	-6.39322843575157	-19.76301530017406	6.545611216834634	-1.462524887449583	-601.818387418715	-62.06575338526707	-26.23774435185793	0.3765086142464201	0.4639537827786471	-0.4686627700582721	-0.9070003068865474	0.651076301552822	-0.2572059713204374	1.434553433875885	-0.8922039215361859	-0.8922039215361816	0.06215183492565052	-0.07570263726967796	-0.3236924008373773	0.6541396945194712	4.649805330765898e-07	6.946783323156708e-07	-2.527194456552966e-06	-2.550995471003501e-07	5.331495719530385e-07	5.716604362098514e-07	4.222710466462569e-07
1.53	-0.3154544945771569	-0.02178903734779386	0.7914523503403725	1.059843383531658	-0.3061069924612432	-0.03077481929018204	-0.3158965022293843	0.7026106712374469	0.7026106712374982	-0.1738048237109032	0.1690200688016146	0.1321727477930931	-0.0259410951262221	0.421023450686192	0.1686898761239214	0.4364839439716602	-1.980150014729823	0.02266334908174091	-0.6614577275683077	0.6200392722787346	-1.970446398200973	-1.970446398200983	0.003402273580231961	-0.03452176671479076	-0.5258172759875194	-0.06059487602459404	-0.1704444722182419	0.01827960861338899	-0.02501484011365985	-0.2376048345816998	0.1003081743435254	0.0398981806619961	0.1734648653349093	-5.643780402612561	-19.74485915997283	6.635081766041314	-1.680730149133643	-598.2759222983519	-62.31284252134844	-27.38341707365495	0.3568633621190575	0.4528764200974617	-0.5177830042904091	-0.7744795206631749	0.6141006314775577	-0.1459055443155532	1.367101705959147	-0.7507255399472701	-0.7507255399444002	-0.06063666168469942	-0.08008593689956919	-0.2881240196645369	0.6070592370499853	4.30675755176575e-07	9.028594805219072e-07	-2.302210492941912e-06	-2.005591163478183e-07	5.149061385815431e-07	6.525963799793043e-07	4.063711620445699e-07
1.54	-0.3112272076686151	-0.02007973991394129	0.7957904525482097	1.040006410309429	-0.3058488885742391	-0.03739605256296687	-0.3096284076240695	0.6828718177176697	0.682871817717748	-0.173772420775232	0.1686706055781045	0.1269013776565878	-0.02651581308749649	0.4243776921218644	0.1731484076926281	0.4310523180848904	-1.986972076403937	0.02896305495572272	-0.6626673356439883	0.6334907788724294	-1.977048407043187	-1.977048407043178	0.003046211438054018	-0.03539021396301741	-0.5283667319018978	-0.05434484326090788	-0.1645220057296316	0.01738633440323547	-0.02477607206676173	-0.2352976260374341	0.1021084177765265	0.03936803364338132	0.1685054675025668	-4.896537046833921	-19.72972303358253	6.728925825515677	-1.927495199065133	-594.7992715665131	-62.64436174719516	-28.5190369026121	0.3093382880201944	0.4382360608893951	-0.5688699599717578	-0.5795276301035331	0.6595836597021094	-0.1082982615225726	1.327909539727327	-0.5617620425230467	-0.5617620425230304	0.02399411155794099	-0.09543036798902188	-0.2156094681550279	0.6595410229085966	3.533040074241647e-07	1.149615799680956e-06	-1.884238131762303e-06	-1.116826572938885e-07	4.547726457165666e-07	7.044529378686767e-07	3.651544613725786e-07
1.55	-0.3069681581714909	-0.01832656048966667	0.8000717577760159	1.020109751895741	-0.3055272744625679	-0.0440276830624847	-0.3032284737452399	0.6630758046464313	0.6630758046464431	-0.1737426704553418	0.1683133514179969	0.121607458543169	-0.02702749324250799	0.4273733394686623	0.1774595028521528	0.4251302430025045	-1.992075435823783	0.03536091534197117	-0.6635455842832652	0.6463945334583711	-1.9818652008861	-1.981865200886106	0.002880594474562794	-0.03606843508696493	-0.5303236065004547	-0.04799136879073667	-0.1585728402899802	0.01645556281739677	-0.02454126593848522	-0.2330013583258961	0.1038796075882512	0.03862585046986373	0.1635001505404372	-4.1716000154645	-19.61223635546184	6.799189466978159	-2.100074910461434	-591.4145552603937	-62.80487803034593	-29.63094780034568	0.2858660288386335	0.4233677187742335	-0.6155917227836593	-0.4330916550073716	0.6300230682919955	-0.06034069218931214	1.256388902762808	-0.398338240422313	-0.3983382404246422	-0.04012283002817246	-0.05498616055858998	-0.1716812208521661	0.6230748514075035	2.263116204939973e-07	1.440817424503025e-06	-1.243909573384153e-06	1.675487784643245e-08	3.463745190873642e-07	7.22804985939697e-07	2.947683856630644e-07
1.56	-0.3026809145867329	-0.01653110581873877	0.804291499164916	1.000170589576438	-0.305141654578993	-0.05066464655380716	-0.296702546223604	0.6432402835997146	0.6432402835996593	-0.1737152329510319	0.1679491214114572	0.1162967797307354	-0.02747567381435055	0.4300165096486225	0.1816034570232865	0.4187395503036528	-1.995472857526917	0.04176420933645097	-0.6637339340049048	0.6586895074337219	-1.984950002138892	-1.984950002138913	0.002583648322050864	-0.03678538324935134	-0.5317186717048573	-0.04164492662712063	-0.1526236748503288	0.01552479123155796	-0.02430645981021101	-0.2307050906143579	0.1056507973999759	0.03788366729634604	0.1584948335783075	-3.453994044417618	-19.49583532341677	6.872333056570564	-2.270726252468911	-588.1600979327859	-63.02981285042615	-30.71339150795301	0.2388428546527029	0.4048078632111983	-0.6625934832649073	-0.2383400867609418	0.6606703813483809	0.02968152200486134	1.206153417609157	-0.2153635244989827	-0.2153635244989827	-0.002271726246200264	-0.1031757756767995	-0.1032475893241744	0.6581345615975621	1.490997214575454e-07	1.637203734741992e-06	-8.659801186700633e-07	9.57967626253108e-08	2.846610130980138e-07	7.453157258109738e-07	2.54501896301724e-07
1.57	-0.2983690574242109	-0.01469509688377366	0.8084450510571035	0.9802060872068359	-0.3046919976143914	-0.05730053162506007	-0.2900568618093807	0.6233827370694009	0.6233827370693982	-0.1736910862943223	0.1675778853986149	0.1109750165186848	-0.02786041726736257	0.4322890694198099	0.1855647758181567	0.4118984696956918	-1.997128002930963	0.04816566129937405	-0.6633499380407105	0.670331083985284	-1.986254707999	-1.986254707998993	0.00224421259873969	-0.03745252033665693	-0.5325347840779557	-0.03530464700917175	-0.1465362417248676	0.01430575774115036	-0.02412178244230293	-0.2285930967299213	0.1076694934325362	0.03708450278654801	0.1533728148931302	-2.664392340634628	-19.36720334351869	6.943423482507342	-2.465653289921104	-584.9951818232651	-63.28075204391988	-31.76084568512717	0.2115995647148159	0.3867853755166411	-0.7056632412778755	-0.0841406224790664	0.6295805412513831	0.05699915586080205	1.1257160600843	-0.04238480366793387	-0.0423848036636519	-0.04976707105503408	-0.04689615148449602	-0.05589147410926254	0.6216573228969893	1.341134322882371e-07	1.715070901752082e-06	-8.160495435360469e-07	1.130940844523866e-07	2.813032829084776e-07	7.73024830432571e-07	2.518848898756007e-07
1.58	-0.2940364472587043	-0.01282047646328151	0.8125280325648683	0.9602340256121431	-0.3041783865426633	-0.06392972863222418	-0.283298250372411	0.6035212713431062	0.603521271343156	-0.1736703315099821	0.1672002953196542	0.105648072500342	-0.0281818213919944	0.4341671102455202	0.1893257541286957	0.4046254734190833	-1.996984702545111	0.05455503076178157	-0.6623963211871527	0.6812749119830287	-1.985733841335153	-1.985733841335118	0.001905273848170255	-0.03805619647304485	-0.5327548329633178	-0.02897706095108529	-0.140448808599406	0.01308672425074308	-0.02393710507439451	-0.2264811028454848	0.1096881894650967	0.03628533827675034	0.1482507962079531	-1.883120470736507	-19.23892136144578	7.016635932220065	-2.65365973614924	-581.9742959855736	-63.59543579256856	-32.76787447886978	0.1599390655573196	0.3647397663449807	-0.7489766169944124	0.1213490712189242	0.6582538812452704	0.1436056998775584	1.066603706845682	0.1497509802921654	0.1497509802921639	-0.002172331697852253	-0.09048358549326622	0.01596510822307478	0.6555958496250778	1.183440966331625e-07	1.788448937483214e-06	-7.688209430882574e-07	1.295181547650507e-07	2.774469615651019e-07	7.976196433604828e-07	2.489788594588997e-07
